<svg xmlns="http://www.w3.org/2000/svg" xmlns:xlink="http://www.w3.org/1999/xlink" width="148" height="148" viewBox="0 0 148 148"><defs><style>.a{fill:none;}.b{stroke:#707070;fill:url(#a);}.c{clip-path:url(#b);}.d{fill:#efa26f;}.e{fill:#f99746;}.f{fill:#ffb27d;}.g{fill:#d38254;}.h{fill:#ffc197;}.i{fill:#2b478b;}.j{fill:#c0d8fb;}.k{fill:#cbe1fd;}.l{fill:#ffd3b6;}.m{fill:#ed7d2b;}.n{fill:#f3f8ff;}.o{stroke:none;}</style><linearGradient id="a" x1="0.513" y1="-0.143" x2="0.5" y2="1.077" gradientUnits="objectBoundingBox"><stop offset="0" stop-color="#2e67ce"/><stop offset="1" stop-color="#690c7f"/></linearGradient><clipPath id="b"><rect class="a" width="78.5" height="120.504"/></clipPath></defs><g transform="translate(-1493 -301)"><g class="b" transform="translate(1493 301)"><circle class="o" cx="74" cy="74" r="74"/><circle class="a" cx="74" cy="74" r="73.5"/></g><g class="c" transform="translate(1528 328.326)"><path class="d" d="M359.844,173.657s-5.926,11.854-11.944,20.037c-2.395,3.257-4.8,5.931-6.861,7.047a16.4,16.4,0,0,0-5.128,4.667,37.445,37.445,0,0,0-5.338,10.958l-15.391-23.285s.525-22.761,2.373-26.569c2.693-5.548,3.994-16.759,5.029-18.991.768-1.656,2.96-10.208,3.17-10.836a2.089,2.089,0,0,1,1.768-.685,2.756,2.756,0,0,1,2.376,2.244,25.579,25.579,0,0,1-.313,12.889c.581,5.865-1.165,10.218.059,11.371.046.043.13.022.25-.054,2.122-1.362,15.291-20.562,16.913-20.976,1.713-.437,13.038,32.183,13.038,32.183" transform="translate(-295.57 -127.538)"/><path class="e" d="M39.633,1194.273s-6.467,22.121-7.967,35.121l-6.539-.557s3.672.779-3.357-.852-6.27-1.591-6.27-1.591l-9.518-4.457L0,1218.557c8.874-18.924,16.589-34.852,16.589-34.852s22.105.675,23.044,10.568" transform="translate(0 -1110.053)"/><path class="f" d="M1018.125,12.056l-4.766,6.987-4.677,6.857a1.07,1.07,0,0,1-.972.429c-1.123-.107-2.511-1.725-3.593-2.622l-.11-.09a3.376,3.376,0,0,1-.448-4.74l7.148-8.641h0l2.12-2.563a3.376,3.376,0,0,1,4.74-.448l.11.09a3.377,3.377,0,0,1,.448,4.741" transform="translate(-940.394 -6.054)"/><path class="d" d="M1087.511,76.02l-4.677,6.857a1.071,1.071,0,0,1-.972.429l3-16.093c.007.09.516,7.311,2.652,8.807" transform="translate(-1014.547 -63.031)"/><path class="g" d="M555.153,1041.645c-2.395,3.257-4.8,5.932-6.861,7.047a16.4,16.4,0,0,0-5.128,4.667c-1.622-.756-3.471-1.643-5.279-2.522a3.01,3.01,0,0,1-.13-5.353l.062-.034c2.02-1.156,4.09-5.237,4.09-5.237Z" transform="translate(-502.823 -975.489)"/><path class="h" d="M464.577,152.705l-1.247,5.035a2.645,2.645,0,0,0,1.79.1c.7-.346,1.271-4.863-.543-5.134" transform="translate(-434.501 -143.203)"/><path class="i" d="M583.312,68.535H556.5a4.81,4.81,0,0,1-4.8-4.8V4.8A4.81,4.81,0,0,1,556.5,0h26.816a4.81,4.81,0,0,1,4.8,4.8V63.739a4.81,4.81,0,0,1-4.8,4.8" transform="translate(-517.372)"/><path class="j" d="M613.5,30.853V88.43a3.549,3.549,0,0,1-3.525,3.551H584.23a3.548,3.548,0,0,1-3.525-3.551V30.853A3.548,3.548,0,0,1,584.23,27.3h25.749a3.549,3.549,0,0,1,3.525,3.551" transform="translate(-544.573 -25.603)"/><path class="k" d="M609.979,27.3,584.548,91.98h-.319a3.548,3.548,0,0,1-3.525-3.551V30.852A3.548,3.548,0,0,1,584.23,27.3Z" transform="translate(-544.573 -25.602)"/><path class="i" d="M744.531,9.894H733.769A1.6,1.6,0,0,1,732.175,8.3V8.05a1.6,1.6,0,0,1,1.594-1.594h10.762a1.6,1.6,0,0,1,1.594,1.594V8.3a1.6,1.6,0,0,1-1.594,1.594" transform="translate(-686.618 -6.054)"/><path class="f" d="M1060.857,422.846l-.711.27-4.78,1.816a3.036,3.036,0,0,1-.339.107,3.264,3.264,0,0,1-3.86-1.994l-.07-.184a3.265,3.265,0,0,1,1.887-4.2l4.456-1.693.324-.123.711-.27a3.264,3.264,0,0,1,4.2,1.887l.07.184a3.265,3.265,0,0,1-1.887,4.2" transform="translate(-985.499 -390.458)"/><path class="l" d="M1076.511,463.078a19.064,19.064,0,0,1-3.014.95,1.273,1.273,0,0,1-1-.5,2.944,2.944,0,0,1-.6-1.084,3.444,3.444,0,0,1-.163-.692,2.924,2.924,0,0,1,.026-.823.821.821,0,0,1,.456-.587l0,0a18.845,18.845,0,0,1,2.9-1.137,1.259,1.259,0,0,1,1.562.7l.1.274.513,1.4a1.2,1.2,0,0,1-.785,1.5" transform="translate(-1005.034 -430.58)"/><path class="h" d="M1083.885,474.926a19.064,19.064,0,0,1-3.014.95,1.273,1.273,0,0,1-1-.5c-.04-.093-.077-.192-.112-.3a3.445,3.445,0,0,1-.163-.692,2.924,2.924,0,0,1,.026-.823.822.822,0,0,1,.456-.587l0,0a18.854,18.854,0,0,1,2.9-1.137,1.375,1.375,0,0,1,1.173.186l.513,1.4a1.2,1.2,0,0,1-.785,1.5" transform="translate(-1012.408 -442.428)"/><path class="f" d="M1078.848,559.739l-3.686,1a2.117,2.117,0,0,1-2.591-1.482l-.114-.417a2.117,2.117,0,0,1,1.482-2.591l3.686-1a2.117,2.117,0,0,1,2.591,1.482l.114.417a2.117,2.117,0,0,1-1.482,2.591" transform="translate(-1005.659 -520.632)"/><path class="l" d="M1086.679,579.121a16.647,16.647,0,0,1-2.542.535,1.242,1.242,0,0,1-1.006-.8,2.785,2.785,0,0,1-.271-1.061,2.113,2.113,0,0,1,.082-.631.653.653,0,0,1,.417-.421l0,0a16.471,16.471,0,0,1,2.462-.687,1.043,1.043,0,0,1,1.23.637l.1.332.284,1a.935.935,0,0,1-.755,1.1" transform="translate(-1015.482 -540.194)"/><path class="h" d="M1089.641,587.466a16.64,16.64,0,0,1-2.542.535,1.242,1.242,0,0,1-1.006-.8,2.349,2.349,0,0,1-.074-.508,2.116,2.116,0,0,1,.082-.631.655.655,0,0,1,.417-.421l0,0a16.37,16.37,0,0,1,2.462-.686,1.113,1.113,0,0,1,1.129.415l.284,1a.935.935,0,0,1-.755,1.1" transform="translate(-1018.445 -548.539)"/><path class="m" d="M205.874,1153.214s7.587,7.266,12.7,10.072l3.872-2.746v4.052s7.615,1.347,10.018,0v-11.049l-21.39-10.723Z" transform="translate(-193.064 -1071.711)"/><path class="n" d="M170.409,1040.213s-4.818,7.207-9.606,14.913c0,0,10.091,6.942,15.562,8.978l7.176-8.219-1.024,9.893s6.351,2.315,9.3,1.71c0,0-.186-8.975-.184-14.855,0,0-17.458-4.893-21.22-12.422" transform="translate(-150.798 -975.489)"/><path class="e" d="M334.231,1316.333a1.194,1.194,0,1,1,1.183,1.205,1.194,1.194,0,0,1-1.183-1.205" transform="translate(-313.435 -1233.319)"/><path class="f" d="M1055.316,284.47l-.079.027-4.832,1.241a4,4,0,0,1-4.883-2.555l-.287-1a3.7,3.7,0,0,1,2.594-4.467l1.6-.41,3.237-.831a4,4,0,0,1,4.883,2.555l.287,1a3.7,3.7,0,0,1-2.514,4.44" transform="translate(-980.074 -259.145)"/><path class="l" d="M1105.346,311.488,1103,312.546l-.015,0a2.535,2.535,0,0,1-.284.058c-.039.006-.079.01-.119.015a.323.323,0,0,1-.05,0,.373.373,0,0,1-.324-.528,2.335,2.335,0,0,0,.133-1.592l-.056-.2a.016.016,0,0,0,0-.006l-.182-.667a2.5,2.5,0,0,0-.851-1.3c-.048-.039-.1-.076-.149-.111a.674.674,0,0,1,.2-1.2l.015,0,2.576-.39a1.226,1.226,0,0,1,1.424.954l.207.759.44,1.619c.173.638.022,1.359-.615,1.532" transform="translate(-1032.318 -287.513)"/><path class="h" d="M1111.929,327.287l-2.348,1.058-.015,0c-.055.01-.227.039-.453.074a.373.373,0,0,1-.324-.528,2.334,2.334,0,0,0,.133-1.592l-.056-.2a.019.019,0,0,0,0-.006l-.182-.667a2.5,2.5,0,0,0-.851-1.3.655.655,0,0,1,.37-.263l.015,0,2.576-.39a1.171,1.171,0,0,1,1.31.665l.44,1.619c.173.638.022,1.359-.615,1.531" transform="translate(-1038.901 -303.312)"/><path class="g" d="M504.262,406.077s-1.054-9.2-2.027-11-1.8-5.388-.3-8.058,2.013-7.809,2.013-7.809c.581,5.865-1.165,10.218.059,11.371.046.043.13.022.25-.054Z" transform="translate(-469.935 -355.618)"/></g></g></svg>